<svg width="20" height="20" viewBox="0 0 20 20" fill="none" xmlns="http://www.w3.org/2000/svg">
<path d="M1.03801 18.0761C0.647486 18.4666 0.647486 19.0998 1.03801 19.4903C1.42853 19.8808 2.0617 19.8808 2.45222 19.4903L1.03801 18.0761ZM19.6843 1.84403C19.6843 1.29175 19.2366 0.844033 18.6843 0.844033H9.68429C9.132 0.844033 8.68429 1.29175 8.68429 1.84403C8.68429 2.39632 9.132 2.84403 9.68429 2.84403H17.6843V10.844C17.6843 11.3963 18.132 11.844 18.6843 11.844C19.2366 11.844 19.6843 11.3963 19.6843 10.844V1.84403ZM2.45222 19.4903L19.3914 2.55114L17.9772 1.13693L1.03801 18.0761L2.45222 19.4903Z" fill="white"/>
</svg>
