<svg width="16.000000" height="14.000000" viewBox="0 0 16 11" fill="none" xmlns="http://www.w3.org/2000/svg" xmlns:xlink="http://www.w3.org/1999/xlink">
	<desc>
			Created with Pixso.
	</desc>
	<defs/>
	<path id="Union" d="M-0.5 0C-0.5 -0.28 -0.28 -0.5 0 -0.5L15 -0.5C15.27 -0.5 15.5 -0.28 15.5 0C15.5 0.27 15.27 0.5 15 0.5L0 0.5C-0.28 0.5 -0.5 0.27 -0.5 0ZM3.25 5C3.25 4.72 3.47 4.5 3.75 4.5L15 4.5C15.27 4.5 15.5 4.72 15.5 5C15.5 5.27 15.27 5.5 15 5.5L3.75 5.5C3.47 5.5 3.25 5.27 3.25 5ZM7 10C7 9.72 7.22 9.5 7.5 9.5L15 9.5C15.27 9.5 15.5 9.72 15.5 10C15.5 10.27 15.27 10.5 15 10.5L7.5 10.5C7.22 10.5 7 10.27 7 10Z" fill="#000000" fill-opacity="1.000000" fill-rule="evenodd"/>
</svg>
