<svg width="25.000000" height="14.000000" viewBox="0 0 25 14" fill="none" xmlns="http://www.w3.org/2000/svg" xmlns:xlink="http://www.w3.org/1999/xlink">
	<desc>
			Created with Pixso.
	</desc>
	<defs/>
	<path id="Vector" d="M23.45 0.92C23.61 0.38 23.45 -0.02 22.65 -0.02L20.03 -0.02C19.36 -0.02 19.05 0.32 18.88 0.71C18.88 0.71 17.55 3.9 15.66 5.98C15.04 6.58 14.77 6.77 14.43 6.77C14.26 6.77 14.01 6.58 14.01 6.03L14.01 0.92C14.01 0.27 13.83 -0.02 13.27 -0.02L9.15 -0.02C8.73 -0.02 8.48 0.28 8.48 0.57C8.48 1.19 9.42 1.33 9.52 3.08L9.52 6.88C9.52 7.71 9.37 7.86 9.03 7.86C8.14 7.86 5.98 4.65 4.69 0.98C4.45 0.26 4.19 -0.02 3.52 -0.02L0.9 -0.02C0.15 -0.02 0 0.32 0 0.71C0 1.39 0.88 4.78 4.14 9.26C6.31 12.32 9.37 13.98 12.15 13.98C13.82 13.98 14.02 13.61 14.02 12.97L14.02 10.66C14.02 9.92 14.18 9.78 14.71 9.78C15.1 9.78 15.77 9.97 17.33 11.44C19.11 13.19 19.4 13.98 20.4 13.98L23.03 13.98C23.78 13.98 24.15 13.61 23.94 12.88C23.7 12.16 22.85 11.1 21.72 9.86C21.11 9.15 20.19 8.38 19.91 8C19.52 7.51 19.63 7.29 19.91 6.85C19.91 6.85 23.11 2.43 23.44 0.92L23.45 0.92Z" fill="#FFFFFF" fill-opacity="1.000000" fill-rule="evenodd"/>
</svg>
