<svg width="69.000000" height="23.000000" viewBox="0 0 69 23" fill="none" xmlns="http://www.w3.org/2000/svg" xmlns:xlink="http://www.w3.org/1999/xlink">
	<desc>
			Created with Pixso.
	</desc>
	<defs/>
	<path id="Slick" d="M27.22 4.23Q28.05 4.83 29.32 4.83Q30.52 4.83 31.34 4.27Q31.49 4.16 31.63 4.04Q32.06 3.65 32.28 3.17Q32.51 2.65 32.51 2.03Q32.51 1.35 32.24 0.8Q32.02 0.35 31.63 -0.01Q31.47 -0.16 31.28 -0.29Q30.48 -0.82 29.32 -0.82Q28.09 -0.82 27.27 -0.24Q27.12 -0.14 26.98 -0.01Q26.59 0.35 26.37 0.8Q26.1 1.35 26.1 2.03Q26.1 2.65 26.33 3.17Q26.56 3.65 26.98 4.04Q27.09 4.14 27.22 4.23ZM23.41 22L23.41 1.28L17.92 1.28L17.92 22L23.41 22ZM57.65 15.56L61.99 22L68.69 22L62.38 14.18L68.58 6.29L61.99 6.29L57.65 12.45L57.65 1.28L52.16 1.28L52.16 22L57.65 22L57.65 15.56ZM2.35 20.55Q4.57 22.19 8.01 22.19Q10.28 22.19 11.94 21.38Q13.41 20.67 14.26 19.5Q14.38 19.34 14.49 19.17Q14.74 18.77 14.92 18.34Q15.37 17.27 15.37 16Q15.37 14.43 14.65 13.35Q14.57 13.24 14.49 13.14Q13.82 12.28 12.97 11.71Q12.69 11.52 12.39 11.37Q11.18 10.74 9.3 10.09Q8.04 9.65 7.4 9.36Q6.75 9.06 6.32 8.66Q6.06 8.41 5.96 8.12Q5.89 7.91 5.89 7.69Q5.89 7.13 6.16 6.78Q6.21 6.71 6.28 6.66Q6.38 6.56 6.49 6.49Q6.82 6.29 7.28 6.29Q7.95 6.29 8.42 6.59Q8.52 6.66 8.61 6.74Q8.68 6.79 8.73 6.85Q9.14 7.29 9.16 8.08L15.12 8.08Q15.03 6.17 14.11 4.82Q13.63 4.11 12.93 3.56Q10.87 1.95 7.42 1.95Q5.3 1.95 3.62 2.65Q2.29 3.2 1.42 4.16Q1.19 4.42 0.98 4.71Q0.86 4.88 0.76 5.06Q0.03 6.3 0.03 7.97Q0.03 9.84 0.92 11Q1.74 12.08 2.82 12.68Q2.9 12.72 2.99 12.77Q4.18 13.37 6.1 14.02Q7.93 14.61 8.74 15.08Q9.21 15.36 9.41 15.76Q9.55 16.06 9.55 16.42Q9.55 16.82 9.38 17.12Q9.26 17.32 9.06 17.48Q9.04 17.49 9.02 17.51Q8.54 17.85 7.81 17.85Q7.13 17.85 6.65 17.54Q6.54 17.47 6.44 17.38Q5.91 16.9 5.82 15.86L-0.03 15.86Q0.08 17.82 1.04 19.2Q1.56 19.97 2.35 20.55ZM35.28 9.87Q34.27 11.69 34.27 14.13Q34.27 16.59 35.28 18.41Q35.82 19.39 36.6 20.13Q37.26 20.76 38.09 21.22Q38.13 21.24 38.17 21.26Q39.96 22.19 42.23 22.19Q44.57 22.19 46.33 21.18Q46.82 20.9 47.27 20.54Q47.76 20.14 48.17 19.67Q49.45 18.18 49.9 15.97L44.08 15.97Q43.81 16.84 43.22 17.22Q42.76 17.52 42.11 17.52Q41.63 17.52 41.23 17.32Q40.8 17.11 40.48 16.65Q39.88 15.78 39.88 14.13Q39.88 12.47 40.48 11.62Q40.79 11.19 41.21 10.97Q41.61 10.77 42.11 10.77Q42.73 10.77 43.18 11.05Q43.78 11.42 44.08 12.31L49.9 12.31Q49.44 10.02 48.1 8.52Q47.72 8.09 47.27 7.73Q46.84 7.39 46.37 7.12Q44.6 6.09 42.23 6.09Q39.98 6.09 38.21 7.01Q38.15 7.04 38.09 7.07Q37.29 7.51 36.64 8.12Q35.84 8.87 35.28 9.87ZM32.03 22L32.03 6.29L26.54 6.29L26.54 22L32.03 22Z" fill="#FFFFFF" fill-opacity="1.000000" fill-rule="evenodd"/>
</svg>
