<svg width="12.000000" height="11.000000" viewBox="0 0 12 11" fill="none" xmlns="http://www.w3.org/2000/svg" xmlns:xlink="http://www.w3.org/1999/xlink">
	<desc>
			Created with Pixso.
	</desc>
	<defs/>
	<path id="Union" d="M0.55 -0.66C0.35 -0.86 0.03 -0.86 -0.16 -0.66C-0.36 -0.47 -0.36 -0.15 -0.16 0.05L4.79 5L-0.16 9.94C-0.36 10.14 -0.36 10.46 -0.16 10.65C0.03 10.85 0.35 10.85 0.55 10.65L5.5 5.7L10.44 10.65C10.64 10.85 10.96 10.85 11.15 10.65C11.35 10.46 11.35 10.14 11.15 9.94L6.2 5L11.15 0.05C11.35 -0.15 11.35 -0.47 11.15 -0.66C10.96 -0.86 10.64 -0.86 10.44 -0.66L5.5 4.29L0.55 -0.66Z" fill="#000000" fill-opacity="1.000000" fill-rule="nonzero"/>
</svg>
