<svg width="24.000000" height="14.000000" viewBox="0 0 24 14" fill="none" xmlns="http://www.w3.org/2000/svg" xmlns:xlink="http://www.w3.org/1999/xlink">
	<desc>
			Created with Pixso.
	</desc>
	<defs/>
	<path id="Vector" d="M22.94 0.92C23.11 0.38 22.94 -0.02 22.15 -0.02L19.52 -0.02C18.86 -0.02 18.55 0.32 18.38 0.71C18.38 0.71 17.05 3.9 15.16 5.98C14.54 6.58 14.27 6.77 13.93 6.77C13.76 6.77 13.51 6.58 13.51 6.03L13.51 0.92C13.51 0.27 13.33 -0.02 12.77 -0.02L8.64 -0.02C8.23 -0.02 7.98 0.28 7.98 0.57C7.98 1.19 8.92 1.33 9.02 3.08L9.02 6.88C9.02 7.71 8.87 7.86 8.53 7.86C7.64 7.86 5.48 4.65 4.19 0.98C3.94 0.26 3.69 -0.02 3.02 -0.02L0.39 -0.02C-0.36 -0.02 -0.51 0.32 -0.51 0.71C-0.51 1.39 0.38 4.78 3.64 9.26C5.81 12.32 8.86 13.98 11.65 13.98C13.32 13.98 13.52 13.61 13.52 12.97L13.52 10.66C13.52 9.92 13.68 9.78 14.21 9.78C14.6 9.78 15.27 9.97 16.82 11.44C18.6 13.19 18.9 13.98 19.9 13.98L22.52 13.98C23.27 13.98 23.65 13.61 23.43 12.88C23.2 12.16 22.35 11.1 21.22 9.86C20.61 9.15 19.69 8.38 19.41 8C19.02 7.51 19.13 7.29 19.41 6.85C19.41 6.85 22.61 2.43 22.94 0.92L22.94 0.92Z" fill="#000000" fill-opacity="1.000000" fill-rule="evenodd"/>
</svg>
