<svg width="17.000000" height="16.000000" viewBox="0 0 29 27" fill="none" xmlns="http://www.w3.org/2000/svg" xmlns:xlink="http://www.w3.org/1999/xlink">
	<desc>
			Created with Pixso.
	</desc>
	<defs/>
	<path id="find" d="M20.29 19.78C18.14 21.87 15.17 23.17 11.88 23.17C5.32 23.17 0 17.98 0 11.58C0 5.18 5.32 0 11.88 0C18.45 0 23.78 5.18 23.78 11.58C23.78 14.14 22.93 16.5 21.49 18.42L28.73 25.47C29.08 25.82 29.08 26.39 28.73 26.73C28.37 27.08 27.79 27.08 27.43 26.73L20.29 19.78ZM21.95 11.58C21.95 17 17.44 21.39 11.88 21.39C6.33 21.39 1.82 17 1.82 11.58C1.82 6.17 6.33 1.78 11.88 1.78C17.44 1.78 21.95 6.17 21.95 11.58Z" fill="#000000" fill-opacity="1.000000" fill-rule="evenodd"/>
</svg>
