<svg width="73.000000" height="24.000000" viewBox="0 0 93 31" fill="none" xmlns="http://www.w3.org/2000/svg" xmlns:xlink="http://www.w3.org/1999/xlink">
	<desc>
			Created with Pixso.
	</desc>
	<defs/>
	<path id="slick" d="M35.95 5.64C36.76 6.35 37.82 6.7 39.14 6.7C40.43 6.7 41.47 6.35 42.25 5.64C43.07 4.9 43.47 3.99 43.47 2.9C43.47 1.79 43.07 0.86 42.25 0.13C41.47 -0.61 40.43 -0.97 39.14 -0.97C37.82 -0.97 36.76 -0.61 35.95 0.13C35.16 0.86 34.77 1.79 34.77 2.9C34.77 3.99 35.16 4.9 35.95 5.64ZM31.14 1.88L31.14 30L23.69 30L23.69 1.88L31.14 1.88ZM77.6 21.26L83.49 30L92.57 30L84.02 19.39L92.42 8.68L83.49 8.68L77.6 17.04L77.6 1.88L70.15 1.88L70.15 30L77.6 30L77.6 21.26ZM10.23 30.26Q5.56 30.26 2.56 28.06Q1.47 27.25 0.75 26.2Q-0.53 24.32 -0.67 21.67L7.27 21.67Q7.38 23.08 8.1 23.73Q8.24 23.85 8.4 23.95L8.4 23.95L8.4 23.95Q9.05 24.37 9.96 24.37Q10.99 24.37 11.64 23.88C12.09 23.52 12.32 23.04 12.32 22.43Q12.32 21.94 12.13 21.54L12.13 21.54Q11.86 20.98 11.22 20.61C10.48 20.18 9.29 19.7 7.65 19.17C5.9 18.58 4.48 18.03 3.39 17.49C2.33 16.94 1.39 16.14 0.58 15.1Q-0.6 13.5 -0.6 10.96Q-0.6 8.7 0.39 7.02L0.39 7.02L0.39 7.02Q0.53 6.78 0.69 6.55Q0.99 6.11 1.35 5.73L1.35 5.73Q2.52 4.47 4.27 3.74Q6.54 2.79 9.43 2.79Q14.11 2.79 16.88 4.99Q17.86 5.75 18.52 6.72L18.52 6.72Q19.76 8.53 19.88 11.11L11.79 11.11Q11.76 10.07 11.23 9.48Q11.14 9.38 11.03 9.29Q10.92 9.19 10.81 9.11L10.81 9.11L10.81 9.11Q10.18 8.68 9.24 8.68Q8.61 8.68 8.15 8.96Q8 9.05 7.87 9.17Q7.79 9.25 7.71 9.35Q7.34 9.82 7.34 10.58Q7.34 10.88 7.43 11.15L7.43 11.15Q7.57 11.57 7.91 11.91C8.32 12.26 8.81 12.58 9.4 12.86Q10.27 13.24 11.98 13.85C13.68 14.43 15.07 15.01 16.16 15.59C17.27 16.15 18.22 16.95 19.01 17.99Q19.12 18.13 19.23 18.28Q20.23 19.73 20.23 21.86Q20.23 23.51 19.65 24.92L19.65 24.92L19.65 24.92L19.65 24.92Q19.39 25.56 19.01 26.16Q18.87 26.38 18.72 26.59L18.72 26.59Q17.56 28.19 15.55 29.16Q13.31 30.26 10.23 30.26ZM45.85 19.32C45.85 17.11 46.31 15.19 47.22 13.54Q47.98 12.16 49.08 11.13Q49.95 10.33 51.02 9.74C52.66 8.85 54.54 8.41 56.64 8.41Q59.83 8.41 62.23 9.79Q62.88 10.17 63.48 10.65Q64.09 11.13 64.6 11.7L64.6 11.7Q66.43 13.73 67.05 16.85L59.15 16.85C58.69 15.45 57.81 14.76 56.49 14.76Q55.83 14.76 55.3 15.02Q54.69 15.31 54.25 15.94C53.72 16.7 53.45 17.82 53.45 19.32C53.45 20.81 53.72 21.95 54.25 22.74Q54.69 23.36 55.3 23.66Q55.83 23.92 56.49 23.92Q57.38 23.92 58 23.51Q58.79 22.99 59.15 21.83L67.05 21.83Q66.45 24.82 64.71 26.84Q64.15 27.48 63.48 28.02Q62.88 28.5 62.23 28.88Q59.83 30.26 56.64 30.26C54.54 30.26 52.66 29.82 51.02 28.93Q49.95 28.35 49.08 27.54L49.08 27.54Q47.98 26.51 47.22 25.13C46.31 23.48 45.85 21.55 45.85 19.32ZM42.83 30L42.83 8.68L35.38 8.68L35.38 30L42.83 30Z" fill="#000000" fill-opacity="1.000000" fill-rule="evenodd"/>
</svg>
