<svg width="19.000000" height="16.000000" viewBox="0 0 32 26" fill="none" xmlns="http://www.w3.org/2000/svg" xmlns:xlink="http://www.w3.org/1999/xlink">
	<desc>
			Created with Pixso.
	</desc>
	<defs/>
	<path id="shop" d="M0.01 1.73C-0.07 1.33 0.19 0.94 0.59 0.86C1.08 0.77 1.55 0.66 2 0.57C3.2 0.31 4.25 0.09 5.1 0.02C5.69 -0.03 6.27 -0.01 6.78 0.16C7.31 0.34 7.73 0.69 8.01 1.21C8.38 1.77 8.65 2.23 8.89 2.63L8.89 2.63C9.14 3.04 9.33 3.36 9.54 3.65C9.78 4 10.06 4.31 10.47 4.67C10.61 4.61 10.76 4.57 10.91 4.55C14.67 4.18 18.79 4.07 22.25 4.15C23.98 4.18 25.56 4.27 26.87 4.4C28.13 4.52 29.24 4.69 29.97 4.93C30.75 5.19 31.22 5.8 31.49 6.34C31.75 6.89 31.89 7.52 31.95 8.12C32.08 9.35 31.93 10.82 31.58 12.24C31.23 13.66 30.63 15.14 29.77 16.35C28.91 17.55 27.69 18.61 26.06 18.89C23.68 19.28 20.23 19.27 17.47 19.18C16.06 19.14 14.8 19.06 13.89 19.01C13.44 18.98 13.07 18.95 12.82 18.93C12.69 18.92 12.59 18.91 12.52 18.91L12.44 18.9L12.41 18.9C11.72 18.84 11.16 18.31 11.07 17.62L9.6 6.22C9.58 6.1 9.58 5.98 9.59 5.86C9.06 5.41 8.68 4.99 8.34 4.51C8.09 4.17 7.87 3.8 7.64 3.41L7.63 3.39C7.39 2.99 7.12 2.54 6.76 2C6.74 1.97 6.73 1.95 6.71 1.92C6.62 1.73 6.5 1.63 6.3 1.56C6.08 1.48 5.73 1.45 5.22 1.49C4.48 1.56 3.56 1.75 2.41 1.99C1.94 2.09 1.43 2.2 0.88 2.31C0.48 2.39 0.09 2.13 0.01 1.73ZM25.81 17.43C21.39 18.17 12.54 17.43 12.54 17.43L11.06 6.03C11.3 6 11.55 5.98 11.79 5.96C12.04 5.93 12.29 5.91 12.53 5.89C19.57 5.33 27.44 5.64 29.5 6.33C31.72 7.07 30.24 16.69 25.81 17.43ZM14.75 26C16.38 26 17.7 24.67 17.7 23.04C17.7 21.4 16.38 20.08 14.75 20.08C13.12 20.08 11.8 21.4 11.8 23.04C11.8 24.67 13.12 26 14.75 26ZM25.08 26C26.71 26 28.03 24.67 28.03 23.04C28.03 21.4 26.71 20.08 25.08 20.08C23.45 20.08 22.13 21.4 22.13 23.04C22.13 24.67 23.45 26 25.08 26ZM14.75 24.96C15.81 24.96 16.67 24.1 16.67 23.04C16.67 21.97 15.81 21.11 14.75 21.11C13.69 21.11 12.83 21.97 12.83 23.04C12.83 24.1 13.69 24.96 14.75 24.96ZM25.08 24.96C26.14 24.96 27 24.1 27 23.04C27 21.97 26.14 21.11 25.08 21.11C24.02 21.11 23.16 21.97 23.16 23.04C23.16 24.1 24.02 24.96 25.08 24.96Z" fill="#000000" fill-opacity="1.000000" fill-rule="evenodd"/>
</svg>
