<svg width="182.000000" height="40.000000" viewBox="0 0 182 40" fill="none" xmlns="http://www.w3.org/2000/svg" xmlns:xlink="http://www.w3.org/1999/xlink">
	<desc>
			Created with Pixso.
	</desc>
	<defs/>
	<path id="Vector" d="M75.75 29.76L60.12 29.76L80.09 3.04C80.3 2.75 80.39 2.39 80.34 2.04C80.29 1.69 80.1 1.37 79.82 1.15C79.59 0.98 79.32 0.88 79.03 0.87L50.14 0.87C49.53 0.87 48.92 1 48.36 1.23C47.79 1.47 47.29 1.81 46.86 2.25C45.98 3.13 45.5 4.32 45.5 5.56C45.5 6.8 45.99 7.99 46.86 8.88C47.29 9.31 47.8 9.66 48.36 9.89C48.92 10.13 49.53 10.25 50.14 10.25L63.13 10.25L43.08 36.95C42.96 37.1 42.88 37.27 42.83 37.46C42.79 37.64 42.78 37.83 42.81 38.02C42.85 38.2 42.92 38.38 43.02 38.54C43.13 38.69 43.27 38.82 43.43 38.92C43.64 39.05 43.89 39.12 44.14 39.12L75.76 39.12C76.94 39.05 78.05 38.53 78.85 37.66C79.66 36.79 80.12 35.65 80.12 34.46C80.12 33.26 79.66 32.12 78.85 31.25C78.05 30.39 76.94 29.87 75.75 29.8L75.75 29.76ZM176.73 0.87C175.82 0.88 174.92 1.15 174.16 1.67C173.4 2.18 172.81 2.91 172.47 3.76C172.24 4.33 172.12 4.94 172.12 5.55L172.12 21.21L147.15 1.18C147.01 1.07 146.86 0.99 146.69 0.94C146.52 0.89 146.35 0.87 146.18 0.89C146 0.91 145.84 0.96 145.68 1.04C145.53 1.12 145.39 1.24 145.28 1.37C145.09 1.61 144.98 1.92 144.99 2.23L144.99 34.42C145.03 35.63 145.54 36.77 146.4 37.6C147.26 38.44 148.41 38.91 149.61 38.91C150.8 38.91 151.95 38.44 152.81 37.6C153.67 36.76 154.18 35.62 154.23 34.42L154.23 18.75L179.2 38.78C179.34 38.9 179.51 38.98 179.69 39.02C179.87 39.06 180.06 39.07 180.24 39.04C180.43 39 180.6 38.93 180.75 38.83C180.9 38.72 181.03 38.59 181.13 38.43C181.26 38.22 181.33 37.97 181.34 37.72L181.34 5.55C181.34 4.31 180.85 3.13 179.99 2.24C179.56 1.81 179.05 1.47 178.49 1.23C177.93 1 177.33 0.87 176.72 0.87L176.73 0.87ZM110.69 30.65C100.13 30.65 92.24 25.02 92.24 19.98C92.24 14.95 100.13 9.32 110.69 9.32C121.25 9.32 129.13 14.95 129.13 19.98C129.13 25.02 121.28 30.65 110.69 30.65ZM110.69 0C95.4 0 83.01 8.94 83.01 19.98C83.01 31.02 95.4 39.97 110.69 39.97C125.98 39.97 138.4 31.01 138.4 19.98C138.4 8.95 125.98 0 110.69 0ZM19.79 30.65C17.7 30.66 15.66 30.03 13.92 28.86C12.18 27.69 10.83 26.02 10.03 24.08C9.23 22.13 9.02 19.98 9.42 17.91C9.82 15.85 10.83 13.94 12.3 12.44C13.77 10.95 15.65 9.93 17.7 9.51C19.75 9.1 21.88 9.31 23.81 10.11C25.74 10.92 27.39 12.29 28.55 14.04C29.91 16.09 30.53 18.55 30.29 21.01C30.05 23.46 28.98 25.76 27.25 27.51C26.28 28.5 25.12 29.28 23.83 29.82C22.55 30.36 21.18 30.64 19.79 30.64L19.79 30.65ZM19.79 0C15.87 -0.01 12.05 1.16 8.8 3.36C5.54 5.56 3 8.68 1.51 12.33C0.01 15.99 -0.39 20 0.37 23.88C1.13 27.75 3.01 31.32 5.78 34.13C8.53 36.92 12.06 38.83 15.9 39.61C19.74 40.38 23.72 39.99 27.33 38.48C30.96 36.96 34.05 34.4 36.22 31.12C38.4 27.83 39.56 23.97 39.56 20.01C39.57 17.38 39.06 14.78 38.06 12.35C37.08 9.93 35.62 7.72 33.78 5.86C31.95 4 29.77 2.53 27.37 1.52C24.97 0.51 22.39 0 19.79 0Z" fill="#FFFFFF" fill-opacity="1.000000" fill-rule="nonzero"/>
</svg>
