<svg width="299.000000" height="40.000000" viewBox="0 0 299 40" fill="none" xmlns="http://www.w3.org/2000/svg" xmlns:xlink="http://www.w3.org/1999/xlink">
	<desc>
			Created with Pixso.
	</desc>
	<defs>
		<clipPath id="clip3003_11">
			<rect id="sbermarket_svg__sbermarket-image-logo" width="298.571442" height="40.000000" fill="white" fill-opacity="0"/>
		</clipPath>
	</defs>
	<rect id="sbermarket_svg__sbermarket-image-logo" width="298.571442" height="40.000000" fill="#FFFFFF" fill-opacity="0"/>
	<g clip-path="url(#clip3003_11)">
		<path id="Vector" d="M114.3 12.09L119.64 8.16L101.78 8.16L101.78 31.74L119.64 31.74L119.64 27.82L106.88 27.82L106.88 21.78L117.77 21.78L117.77 17.85L106.88 17.85L106.88 12.09L114.3 12.09L114.3 12.09ZM88.29 17.35L82.09 17.35L82.09 12.09L91.99 12.09L97.33 8.16L76.99 8.16L76.99 31.74L87.63 31.74C93.61 31.74 97.03 29.04 97.03 24.33C97.03 19.83 93.92 17.35 88.29 17.35ZM87.41 27.82L82.09 27.82L82.09 21.28L87.41 21.28C90.64 21.28 92.15 22.38 92.15 24.55C92.15 26.77 90.55 27.82 87.41 27.82ZM134.12 8.16L124.39 8.16L124.39 31.74L129.49 31.74L129.49 25.06L134.12 25.06C140.32 25.06 144.18 21.81 144.18 16.6C144.18 11.4 140.32 8.16 134.12 8.16ZM134.01 21.14L129.49 21.14L129.49 12.09L134.01 12.09C137.27 12.09 139.07 13.69 139.07 16.61C139.07 19.53 137.27 21.14 134.01 21.14ZM68.24 26.64C66.93 27.36 65.41 27.74 63.84 27.74C59.24 27.74 55.91 24.46 55.91 19.95C55.91 15.44 59.24 12.17 63.84 12.17C65.58 12.17 67.14 12.66 68.48 13.61L72.13 10.92L71.89 10.71C69.76 8.84 66.9 7.85 63.64 7.85C60.1 7.85 56.89 9.04 54.6 11.2C52.29 13.38 51.03 16.44 51.03 19.82C51.03 23.22 52.29 26.32 54.59 28.56C56.89 30.81 60.1 32.05 63.61 32.05C67.29 32.05 70.5 30.78 72.67 28.45L69.38 26.02L68.24 26.64Z" fill="#FFFFFF" fill-opacity="1.000000" fill-rule="nonzero"/>
		<path id="Vector" d="M177.67 14.02L170.08 26.54L167.96 26.54L160.2 14.19L160.2 31.72L155.99 31.72L155.99 8.17L161.31 8.17L169.13 20.99L176.89 8.17L181.88 8.17L181.88 31.72L177.67 31.72L177.67 14.02L177.67 14.02ZM208.93 31.72L204.44 31.72L202.19 26.14L191.37 26.14L189.14 31.72L184.86 31.72L194.43 8.17L199.22 8.17L208.93 31.72ZM200.64 22.26L196.76 12.6L192.88 22.26L200.64 22.26ZM216.14 24.38L216.14 31.72L211.93 31.72L211.93 8.17L219.79 8.17C227.24 8.17 230.41 10.83 230.41 16.14C230.41 21.63 226.7 24.39 219.79 24.39L216.14 24.39L216.14 24.38ZM216.14 12.04L216.14 20.52L220.09 20.52C224 20.52 226.02 19.24 226.02 16.04C226.02 13.15 224.27 12.03 220.16 12.03L216.14 12.03L216.14 12.04ZM238.94 31.72L234.72 31.72L234.72 8.17L238.94 8.17L238.94 18.06L242.48 18.06L250.07 8.17L255.19 8.17L246.19 19.38L256.65 31.73L251.25 31.73L242.68 21.53L238.94 21.53L238.94 31.72ZM274.71 21.53L263.85 21.53L263.85 27.85L276.33 27.85L276.33 31.72L259.64 31.72L259.64 8.17L275.97 8.17L275.97 12.04L263.86 12.04L263.86 17.65L274.72 17.65L274.72 21.53L274.71 21.53ZM298.56 12.04L290.6 12.04L290.6 31.72L286.38 31.72L286.38 12.04L278.56 12.04L278.56 8.17L298.56 8.17L298.56 12.04Z" fill="#FFFFFF" fill-opacity="1.000000" fill-rule="nonzero"/>
		<path id="Vector" d="M36.1 7.77C37.05 8.99 37.86 10.33 38.51 11.74L20.15 25.17L12.48 20.4L12.48 14.66L20.15 19.43L36.1 7.77Z" fill="#FFFFFF" fill-opacity="1.000000" fill-rule="nonzero"/>
		<path id="Vector" d="M4.65 19.99C4.65 19.74 4.66 19.48 4.67 19.23L0.02 19C0 19.33 0 19.66 0 19.99C0 25.52 2.25 30.52 5.9 34.14L9.19 30.87C6.39 28.08 4.65 24.23 4.65 19.99L4.65 19.99Z" fill="#FFFFFF" fill-opacity="1.000000" fill-rule="nonzero"/>
		<path id="Vector" d="M20.15 4.61C20.41 4.61 20.66 4.62 20.92 4.64L21.15 0.02C20.82 0 20.48 0 20.15 3.05e-5C14.81 -0.02 9.68 2.09 5.9 5.85L9.19 9.12C12.1 6.23 16.04 4.61 20.15 4.61Z" fill="#FFFFFF" fill-opacity="1.000000" fill-rule="nonzero"/>
		<path id="Vector" d="M20.15 35.37C19.89 35.37 19.63 35.37 19.37 35.36L19.14 39.97C19.48 39.99 19.81 40 20.15 40C25.71 40 30.75 37.76 34.4 34.14L31.1 30.87C28.19 33.76 24.25 35.38 20.15 35.37Z" fill="#FFFFFF" fill-opacity="1.000000" fill-rule="nonzero"/>
		<path id="Vector" d="M28.89 7.3L32.81 4.43C29.22 1.55 24.75 -0.01 20.15 4.57e-5L20.15 4.62C23.26 4.61 26.31 5.55 28.89 7.3Z" fill="#FFFFFF" fill-opacity="1.000000" fill-rule="nonzero"/>
		<path id="Vector" d="M40.3 19.99C40.3 18.77 40.19 17.57 39.98 16.41L35.64 19.58C35.64 19.72 35.65 19.86 35.65 19.99C35.65 24.51 33.68 28.58 30.54 31.39L33.67 34.82C37.74 31.17 40.3 25.88 40.3 19.99Z" fill="#FFFFFF" fill-opacity="1.000000" fill-rule="nonzero"/>
		<path id="Vector" d="M20.15 35.37C15.6 35.37 11.5 33.42 8.66 30.31L5.21 33.41C7.1 35.49 9.41 37.15 11.98 38.28C14.55 39.42 17.34 40 20.15 40L20.15 35.37L20.15 35.37Z" fill="#FFFFFF" fill-opacity="1.000000" fill-rule="nonzero"/>
		<path id="Vector" d="M9.76 8.59L6.63 5.16C2.55 8.82 0 14.11 0 19.99L4.65 19.99C4.65 15.48 6.62 11.41 9.76 8.59Z" fill="#FFFFFF" fill-opacity="1.000000" fill-rule="nonzero"/>
	</g>
</svg>
