<svg width="979.000000" height="316.000000" viewBox="0 0 979 316" fill="none" xmlns="http://www.w3.org/2000/svg" xmlns:xlink="http://www.w3.org/1999/xlink">
	<desc>
			Created with Pixso.
	</desc>
	<defs/>
	<path id="Slick" d="M404.58 60.57C412.15 67.58 421.25 71.09 431.85 71.09C442.55 71.09 451.64 67.58 459.12 60.57C466.7 53.57 470.49 45.14 470.49 35.29C470.49 25.44 466.7 17.01 459.12 10.01C451.64 3 442.55 -0.5 431.85 -0.5C421.25 -0.5 412.15 3 404.58 10.01C397 17.01 393.22 25.44 393.22 35.29C393.22 45.14 397 53.57 404.58 60.57ZM163.56 112C162.81 102.53 159.25 95.14 152.91 89.84Q143.53 81.88 124.36 81.88Q112.14 81.88 104.33 84.86C99.22 86.76 95.43 89.36 92.97 92.68C90.5 95.99 89.23 99.78 89.13 104.04Q88.88 108.6 90.45 112.41Q90.69 112.99 90.98 113.56C92.49 116.3 94.86 118.81 98.08 121.09C101.3 123.26 105.42 125.25 110.44 127.05C115.46 128.85 121.42 130.46 128.34 131.88L152.2 137C168.3 140.4 182.08 144.9 193.53 150.49Q210.72 158.87 221.66 170.23Q229.95 178.74 234.89 188.87L234.89 188.88Q236.47 192.11 237.71 195.52Q242.97 209.58 243.11 226.2C243.01 245.33 238.23 261.52 228.76 274.78Q227.83 276.08 226.85 277.35Q212.82 295.35 188.14 305.04C170.62 311.95 149.55 315.4 124.93 315.4C99.64 315.4 77.58 311.66 58.73 304.18C39.98 296.7 25.4 285.2 14.98 269.67Q-0.5 246.23 -0.64 209.72L74.36 209.72Q75.07 223.08 81.03 232.17Q82.6 234.55 84.5 236.63L84.5 236.64L84.5 236.64Q89.84 242.49 97.8 245.94Q108.73 250.63 123.79 250.63C132.22 250.63 139.27 249.59 144.96 247.51C150.64 245.42 154.95 242.54 157.88 238.84C160.82 235.15 162.33 230.93 162.43 226.2C162.33 221.75 160.86 217.87 158.02 214.55Q153.9 209.44 144.39 205.46C138.04 202.72 129.47 200.16 118.68 197.79L89.7 191.54Q51.06 183.16 28.76 163.56Q22.12 157.64 17.48 150.43L17.48 150.42Q6.65 133.59 6.75 109.72Q6.64 90.1 14.1 73.97L14.1 73.97Q17.17 67.33 21.52 61.28Q22.87 59.41 24.32 57.61L24.32 57.61L24.32 57.61L24.32 57.61Q38.96 39.36 63.14 28.76Q89.84 17.11 124.36 17.11Q159.59 17.11 185.3 28.9Q206.24 38.5 219.36 54.52L219.37 54.53L219.37 54.53Q222.35 58.17 224.93 62.14Q227.29 65.72 229.26 69.51Q239.01 88.24 239.13 112L163.56 112ZM352.7 21.09L352.7 312L274.29 312L274.29 21.09L352.7 21.09ZM753.58 21.09L753.58 312L831.99 312L831.99 250.13L843.74 235.12L888.24 312L978.02 312L901.53 189.43L975.74 93.81L887.68 93.81L834.83 167.11L831.99 167.11L831.99 21.09L753.58 21.09ZM555.32 301.91Q541.73 294.27 531.55 283.44Q522.79 274.11 516.55 262.42Q503.05 237 503.05 203.47Q503.05 169.95 516.55 144.67Q523.08 132.35 532.38 122.71Q542.28 112.43 555.32 105.18C572.18 95.71 592.45 90.97 616.12 90.97C637.52 90.97 656.03 94.85 671.66 102.62C687.38 110.29 699.55 121.18 708.17 135.29C716.78 149.31 721.14 165.78 721.23 184.72L648.51 184.72Q646.94 167.54 638.56 158.59C633.07 152.53 625.97 149.5 617.26 149.5C610.44 149.5 604.47 151.48 599.36 155.46C594.25 159.34 590.27 165.26 587.43 173.22C584.59 181.08 583.17 190.97 583.17 202.9C583.17 214.84 584.59 224.78 587.43 232.73C590.27 240.59 594.25 246.51 599.36 250.49C604.47 254.37 610.44 256.31 617.26 256.31C623.03 256.31 628.15 254.99 632.6 252.34C637.05 249.59 640.65 245.61 643.39 240.4Q647.65 232.45 648.51 221.09L721.23 221.09C720.95 240.31 716.55 257.07 708.02 271.37C699.5 285.57 687.43 296.56 671.8 304.32Q648.51 315.97 616.12 315.97C592.45 315.97 572.18 311.29 555.32 301.91ZM392.65 93.81L392.65 312L471.06 312L471.06 93.81L392.65 93.81Z" fill="#FFFFFF" fill-opacity="0.080000" fill-rule="evenodd"/>
</svg>
