<svg width="143" height="951" viewBox="0 0 143 951" fill="none" xmlns="http://www.w3.org/2000/svg">
<path d="M0.599649 915.885H84.5997C92.9997 915.885 99.4663 913.819 104 909.685C108.533 905.552 110.8 899.485 110.8 891.485C110.8 883.485 108.533 877.352 104 873.085C99.4663 868.819 92.9996 866.685 84.5996 866.685H0.599647L0.599646 832.485H84.3996C96.933 832.485 107.533 835.152 116.2 840.485C124.866 845.819 131.4 853.019 135.8 862.085C140.2 871.019 142.4 881.019 142.4 892.085C142.4 903.152 140.266 913.085 136 921.885C131.6 930.552 125.066 937.419 116.4 942.485C107.6 947.552 96.933 950.085 84.3997 950.085L0.599651 950.085L0.599649 915.885Z" fill="white"/>
<path d="M114.6 774.27V729.47H141V808.47H0.599645L0.599643 774.27H114.6Z" fill="white"/>
<path d="M0.599636 612.157H27.9996L27.9996 649.357H141V683.557H27.9996L27.9996 720.757H0.599641L0.599636 612.157Z" fill="white"/>
<path d="M0.599634 560.793H141V594.993H0.599635L0.599634 560.793Z" fill="white"/>
<path d="M0.599626 377.009H141V411.209H56.7996L141 442.609V470.209L56.5996 501.809L141 501.809V536.009H0.599633L0.599631 495.609L97.7996 456.209L0.599628 417.209L0.599626 377.009Z" fill="white"/>
<path d="M116.2 265.015V317.415L141 325.815V361.615L0.599623 310.815L0.599621 271.215L141 220.415V256.615L116.2 265.015ZM89.7996 273.815L38.3996 291.215L89.7996 308.415V273.815Z" fill="white"/>
<path d="M0.599614 103.954H27.9996L27.9996 141.154L141 141.154V175.354L27.9996 175.354L27.9996 212.554H0.599619L0.599614 103.954Z" fill="white"/>
<path d="M27.9996 52.59L56.3996 52.59L56.3996 6.79004L82.7996 6.79004V52.59H113.6L113.6 0.79004L141 0.790039V86.79L0.599613 86.79L0.599609 0.790045L27.9996 0.790044L27.9996 52.59Z" fill="white"/>
</svg>
