<svg width="305" height="47" viewBox="0 0 305 47" fill="none" xmlns="http://www.w3.org/2000/svg">
<path d="M11.7204 0.957031V27.837C11.7204 30.525 12.3817 32.5944 13.7044 34.045C15.027 35.4957 16.9684 36.221 19.5284 36.221C22.0884 36.221 24.051 35.4957 25.4164 34.045C26.7817 32.5944 27.4644 30.525 27.4644 27.837V0.957031H38.4084V27.773C38.4084 31.7837 37.555 35.1757 35.8484 37.949C34.1417 40.7224 31.8377 42.813 28.9364 44.221C26.0777 45.629 22.8777 46.333 19.3364 46.333C15.795 46.333 12.6164 45.6504 9.80037 44.285C7.02703 42.877 4.8297 40.7864 3.20837 38.013C1.58703 35.197 0.776367 31.7837 0.776367 27.773V0.957031H11.7204Z" fill="white"/>
<path d="M57.0374 37.437H71.3734V45.885H46.0934V0.957031H57.0374V37.437Z" fill="white"/>
<path d="M108.913 0.957031V9.72503H97.0094V45.885H86.0654V9.72503H74.1614V0.957031H108.913Z" fill="white"/>
<path d="M125.35 0.957031V45.885H114.406V0.957031H125.35Z" fill="white"/>
<path d="M184.161 0.957031V45.885H173.217V18.941L163.169 45.885H154.337L144.225 18.877V45.885H133.281V0.957031H146.209L158.817 32.061L171.297 0.957031H184.161Z" fill="white"/>
<path d="M219.999 37.949H203.231L200.543 45.885H189.087L205.343 0.957031H218.015L234.271 45.885H222.687L219.999 37.949ZM217.183 29.501L211.615 13.053L206.111 29.501H217.183Z" fill="white"/>
<path d="M271.538 0.957031V9.72503H259.634V45.885H248.69V9.72503H236.786V0.957031H271.538Z" fill="white"/>
<path d="M287.975 9.72503V18.813H302.631V27.261H287.975V37.117H304.551V45.885H277.031V0.957031H304.551V9.72503H287.975Z" fill="white"/>
</svg>
