<svg width="267.000000" height="40.000000" viewBox="0 0 267 40" fill="none" xmlns="http://www.w3.org/2000/svg" xmlns:xlink="http://www.w3.org/1999/xlink">
	<desc>
			Created with Pixso.
	</desc>
	<defs/>
	<path id="Vector" d="M112.27 11.76C109.26 11.76 106.54 12.64 104.22 14.17L104.22 0.28L97.79 0.28L97.79 25.89C97.79 33.69 104.29 39.96 112.24 39.96C120.18 39.96 126.75 33.72 126.75 25.82C126.75 17.92 120.33 11.76 112.27 11.76ZM78.92 12.18C71.77 12.89 65.93 18.91 65.93 26.07C65.93 33.65 72.57 40 80.34 40C88.1 40 94.75 33.65 94.75 26.07C94.75 22.85 93.55 19.87 91.62 17.53L77.4 0.31L69.09 0.31L78.92 12.18ZM29.21 27.7L23.33 12.75L18.83 12.75L12.91 27.7L7 12.75L0 12.75L10.34 39.04L14.84 39.04L21.04 23.38L27.28 39.04L31.78 39.04L42.09 12.75L35.12 12.75L29.21 27.7ZM144.17 11.79C136.15 11.79 129.66 17.89 129.66 25.58C129.66 33.26 135.35 40 143.81 40C148.89 40 152.99 37.62 155.89 33.55L150.88 29.58C149.43 32.13 146.64 33.62 143.84 33.62C140.22 33.62 136.66 31.1 136.37 27.42L157.38 27.42L157.38 25.5C157.38 17.46 151.94 11.79 144.17 11.79ZM226.18 11.79C218.16 11.79 211.7 17.89 211.7 25.93C211.7 33.48 217.4 40 225.82 40C230.9 40 235 37.62 237.9 33.55L233.48 29.9C231.92 32.24 229.09 33.62 225.71 33.62C222.34 33.62 218.71 31.1 218.42 27.42L239.36 27.42L239.36 25.22C239.36 17.46 233.95 11.79 226.18 11.79ZM248.68 20.44C248.68 18.81 250.97 17.5 253.94 17.5C256.92 17.5 260.22 18.95 262.36 21.29L266.25 16.65C262.54 13.46 258.81 11.79 254.13 11.79C248.28 11.79 242.26 14.41 242.26 20.44C242.26 27.84 248.79 28.37 254.13 28.8C257.1 29.01 259.75 29.22 259.75 31.14C259.75 33.19 256.74 34.15 254.09 34.15C251 34.15 247.67 32.87 245.23 30L241.1 34.29C244.4 38.22 249.19 39.96 253.87 39.96C259.75 39.96 266.17 37.23 266.17 31C266.17 23.95 259.57 23.27 254.49 22.78C251.29 22.46 248.68 22.17 248.68 20.44ZM167.14 18.74L167.14 12.75L160.72 12.75L160.72 39L167.14 39L167.14 27.91C168.01 21.71 173.06 19.23 178.9 19.23L178.9 12.75L178.25 12.75C173.31 12.75 169.72 14.52 167.14 18.74ZM187.54 18.74L187.54 12.75L181.11 12.75L181.11 39L187.54 39L187.54 27.91C188.41 20.93 194.58 19.23 199.29 19.23L199.29 12.75L198.6 12.75C193.74 12.75 190.08 14.49 187.54 18.74ZM56.21 39L62.63 39L62.63 0.31L56.21 0.31L56.21 39ZM80.37 33.69C75.95 33.69 72.35 30.22 72.35 25.89C72.35 21.57 75.95 18.06 80.34 18.06C84.73 18.06 88.43 21.54 88.43 25.89C88.43 30.25 84.8 33.69 80.37 33.69ZM112.24 33.69C107.88 33.69 104.22 30.29 104.22 25.86C104.22 21.43 107.66 18.06 112.27 18.06C116.88 18.06 120.33 21.57 120.33 25.86C120.33 30.15 116.66 33.69 112.24 33.69ZM45.1 39L51.53 39L51.53 12.75L45.1 12.75L45.1 39ZM202.05 39L208.47 39L208.47 12.75L202.05 12.75L202.05 39ZM48.22 0C45.61 0 43.43 2.12 43.43 4.81C43.43 7.51 45.72 9.38 48.22 9.38C51.02 9.38 53.12 7.12 53.12 4.67C53.12 2.23 50.91 0 48.22 0ZM205.24 0C202.63 0 200.42 2.12 200.42 4.78C200.42 7.44 202.56 9.35 205.35 9.35C208.15 9.35 210.07 7.47 210.07 4.88C210.07 2.3 207.89 0 205.24 0ZM219.18 22.17C220.23 19.59 222.52 18.06 225.89 18.06C229.27 18.06 231.3 19.66 232.17 22.17L219.18 22.17ZM137.13 22.17C138.22 19.59 140.47 18.06 143.81 18.06C147.14 18.06 149.32 19.66 150.19 22.17L137.13 22.17Z" fill="#FFFFFF" fill-opacity="1.000000" fill-rule="nonzero"/>
</svg>
