<svg width="209.000000" height="40.000000" viewBox="0 0 209 40" fill="none" xmlns="http://www.w3.org/2000/svg" xmlns:xlink="http://www.w3.org/1999/xlink">
	<desc>
			Created with Pixso.
	</desc>
	<defs>
		<clipPath id="clip3003_22">
			<rect id="Frame" width="208.750000" height="40.000000" fill="white" fill-opacity="0"/>
		</clipPath>
	</defs>
	<rect id="Frame" width="208.750000" height="40.000000" fill="#FFFFFF" fill-opacity="0"/>
	<g clip-path="url(#clip3003_22)">
		<path id="Vector" d="M97.62 33.75L101.75 33.75L107.5 12.37L107.5 33.75L112.12 33.75L112.12 5.5L105.75 5.5L100 26.25L94.25 5.5L87.75 5.5L87.75 33.75L91.75 33.75L91.75 12.37L97.62 33.75ZM131.5 19.75C131.5 14.75 129 12.87 123.87 12.87C120.62 12.87 118.12 13.87 116.62 14.75L116.62 18.75C117.87 17.75 120.75 16.75 123.25 16.75C125.62 16.75 126.62 17.62 126.62 19.75L126.62 20.87L125.87 20.87C118.5 20.87 115.12 23.37 115.12 27.5C115.12 31.62 117.62 34 121.37 34C124.25 34 125.5 33.12 126.37 32.12L126.62 32.12C126.62 32.62 126.87 33.37 127 33.75L131.75 33.75C131.62 32.12 131.5 30.37 131.5 28.75L131.5 19.75ZM126.62 28.87C126 29.75 124.87 30.5 123.12 30.5C121.12 30.5 120.12 29.25 120.12 27.5C120.12 25.12 121.75 24.25 126 24.25L126.75 24.25L126.75 28.87L126.62 28.87ZM139.87 13.25L135.37 13.25L135.37 39.62L140.25 39.62L140.25 31.37C141.5 33.25 143.25 34.12 145.37 34.12C150.12 34.12 153.37 30.37 153.37 23.5C153.37 16.62 150.25 12.87 145.62 12.87C143.37 12.87 141.5 13.87 140.12 15.87L139.87 13.25ZM144 30.37C141.5 30.37 140.12 28.25 140.12 23.62C140.12 18.87 141.5 16.75 144.25 16.75C146.87 16.75 148.25 18.87 148.25 23.5C148.25 28.25 146.87 30.37 144 30.37ZM168.5 33.75L174 33.75L166.25 22.75L173.12 13.25L168.25 13.25L161.37 22.75L161.37 13.25L156.5 13.25L156.5 33.75L161.37 33.75L161.37 23.75L168.5 33.75ZM190.25 32.37L190.25 28.37C188.75 29.37 186.25 30.25 183.87 30.25C180.37 30.25 179 28.62 178.75 25.12L190.37 25.12L190.37 22.5C190.37 15.37 187.25 12.75 182.37 12.75C176.5 12.75 173.62 17.25 173.62 23.5C173.62 30.62 177.12 34.12 183.25 34.12C186.62 34.12 188.87 33.37 190.25 32.37ZM182.37 16.75C184.75 16.75 185.5 18.75 185.5 21.25L185.5 21.62L178.75 21.62C178.87 18.37 180.12 16.75 182.37 16.75ZM207.75 17.12L207.75 13.25L191.5 13.25L191.5 17.12L197.25 17.12L197.25 33.75L202.12 33.75L202.12 17.12L207.75 17.12Z" fill="#FFFFFF" fill-opacity="1.000000" fill-rule="nonzero"/>
		<path id="Vector" d="M58.75 38.75C69.12 38.75 77.5 30.37 77.5 20C77.5 9.62 69.12 1.25 58.75 1.25C48.37 1.25 40 9.62 40 20C39.87 30.37 48.37 38.75 58.75 38.75Z" fill="#FFFFFF" fill-opacity="1.000000" fill-rule="nonzero"/>
		<path id="Vector" d="M18.75 38.75C29.1 38.75 37.5 30.35 37.5 20C37.5 9.64 29.1 1.25 18.75 1.25C8.39 1.25 0 9.64 0 20C0 30.35 8.39 38.75 18.75 38.75Z" fill="#FC3F1D" fill-opacity="1.000000" fill-rule="nonzero"/>
		<path id="Vector" d="M21.5 11.75L19.62 11.75C16.37 11.75 14.75 13.37 14.75 15.87C14.75 18.62 15.87 20 18.25 21.62L20.12 23L14.75 31.37L10.37 31.37L15.5 23.75C12.5 21.62 10.87 19.62 10.87 16.12C10.87 11.75 13.87 8.75 19.62 8.75L25.37 8.75L25.37 31.25L21.62 31.25L21.62 11.75L21.5 11.75Z" fill="#FFFFFF" fill-opacity="1.000000" fill-rule="nonzero"/>
		<path id="Vector" d="M43.18 30.54L49.75 21.87L48.5 30.75L55.37 33.12L63.75 19.75C63.37 22.25 62.75 28 68.25 29.75C70.91 30.56 73.46 29.64 75.83 27.75C76.9 25.39 77.5 22.76 77.5 20C77.5 18.79 77.38 17.61 77.17 16.47C74.52 20.44 71.98 23.23 70.62 22.87C68.25 22.25 70.37 14.62 71.75 9.75L71.75 9.62L64.12 7L55 21.87L56.25 13.75L49.62 11.5L40.62 24.37C40.62 24.37 40.59 24.5 40.55 24.7C41.08 26.82 41.98 28.79 43.18 30.54Z" fill="#21201F" fill-opacity="1.000000" fill-rule="evenodd"/>
	</g>
</svg>
